<?xml version="1.0" standalone="no"?>
 <!DOCTYPE svg PUBLIC "-//W3C//DTD SVG 1.1//EN" 
 "http://www.w3.org/Graphics/SVG/1.1/DTD/svg11.dtd"> 
<svg
  xmlns:svg="http://www.w3.org/2000/svg"
  xmlns="http://www.w3.org/2000/svg"
  xmlns:xlink="http://www.w3.org/1999/xlink"
  version="1.1"
  width="4.356100cm" height="4.584700cm" viewBox="0 0 17150 18050">
<title>SVG Picture created as Spider_tiny45-brd.svg date 2021/03/05 17:51:43 </title>
  <desc>Picture generated by PCBNEW </desc>
<g style="fill:#000000; fill-opacity:1;stroke:#000000; stroke-opacity:1;
stroke-linecap:round; stroke-linejoin:round;"
 transform="translate(0 0) scale(1 1)">
</g>
<g style="fill:#000000; fill-opacity:0.0; 
stroke:#000000; stroke-width:-0.000393701; stroke-opacity:1; 
stroke-linecap:round; stroke-linejoin:round;">
<g >
</g>
<g style="fill:#000000; fill-opacity:0.0; 
stroke:#000000; stroke-width:0; stroke-opacity:1; 
stroke-linecap:round; stroke-linejoin:round;">
</g>
<g style="fill:#000000; fill-opacity:1.0; 
stroke:#000000; stroke-width:0; stroke-opacity:1; 
stroke-linecap:round; stroke-linejoin:round;">
<path style="fill:#000000; fill-opacity:1.0; 
stroke:#000000; stroke-width:0; stroke-opacity:1; 
stroke-linecap:round; stroke-linejoin:round;fill-rule:evenodd;"
d="M 7178.74,13140.5
7178.74,13890.5
6678.74,13890.5
6678.74,13140.5
Z" /> 
<path style="fill:#000000; fill-opacity:1.0; 
stroke:#000000; stroke-width:0; stroke-opacity:1; 
stroke-linecap:round; stroke-linejoin:round;fill-rule:evenodd;"
d="M 8478.74,13140.5
8478.74,13890.5
7978.74,13890.5
7978.74,13140.5
Z" /> 
</g>
<g >
</g>
<g style="fill:#000000; fill-opacity:1.0; 
stroke:#000000; stroke-width:0; stroke-opacity:1; 
stroke-linecap:round; stroke-linejoin:round;">
<path style="fill:#000000; fill-opacity:1.0; 
stroke:#000000; stroke-width:0; stroke-opacity:1; 
stroke-linecap:round; stroke-linejoin:round;fill-rule:evenodd;"
d="M 8278.74,4165.48
7678.74,4165.48
7678.74,3265.48
8278.74,3265.48
Z" /> 
<path style="fill:#000000; fill-opacity:1.0; 
stroke:#000000; stroke-width:0; stroke-opacity:1; 
stroke-linecap:round; stroke-linejoin:round;fill-rule:evenodd;"
d="M 8278.74,6765.48
7678.74,6765.48
7678.74,5865.48
8278.74,5865.48
Z" /> 
<path style="fill:#000000; fill-opacity:1.0; 
stroke:#000000; stroke-width:0; stroke-opacity:1; 
stroke-linecap:round; stroke-linejoin:round;fill-rule:evenodd;"
d="M 6478.74,4165.48
5878.74,4165.48
5878.74,3265.48
6478.74,3265.48
Z" /> 
<path style="fill:#000000; fill-opacity:1.0; 
stroke:#000000; stroke-width:0; stroke-opacity:1; 
stroke-linecap:round; stroke-linejoin:round;fill-rule:evenodd;"
d="M 6478.74,6765.48
5878.74,6765.48
5878.74,5865.48
6478.74,5865.48
Z" /> 
</g>
<g >
</g>
<g style="fill:#000000; fill-opacity:1.0; 
stroke:#000000; stroke-width:0; stroke-opacity:1; 
stroke-linecap:round; stroke-linejoin:round;">
<path style="fill:#000000; fill-opacity:1.0; 
stroke:#000000; stroke-width:0; stroke-opacity:1; 
stroke-linecap:round; stroke-linejoin:round;fill-rule:evenodd;"
d="M 10703.7,5415.48
11453.7,5415.48
11453.7,5915.48
10703.7,5915.48
Z" /> 
<path style="fill:#000000; fill-opacity:1.0; 
stroke:#000000; stroke-width:0; stroke-opacity:1; 
stroke-linecap:round; stroke-linejoin:round;fill-rule:evenodd;"
d="M 10703.7,4115.48
11453.7,4115.48
11453.7,4615.48
10703.7,4615.48
Z" /> 
</g>
<g >
</g>
<g style="fill:#000000; fill-opacity:1.0; 
stroke:#000000; stroke-width:0; stroke-opacity:1; 
stroke-linecap:round; stroke-linejoin:round;">
<path style="fill:#000000; fill-opacity:1.0; 
stroke:#000000; stroke-width:0; stroke-opacity:1; 
stroke-linecap:round; stroke-linejoin:round;fill-rule:evenodd;"
d="M 10478.7,13890.5
10478.7,13140.5
10978.7,13140.5
10978.7,13890.5
Z" /> 
<path style="fill:#000000; fill-opacity:1.0; 
stroke:#000000; stroke-width:0; stroke-opacity:1; 
stroke-linecap:round; stroke-linejoin:round;fill-rule:evenodd;"
d="M 9178.74,13890.5
9178.74,13140.5
9678.74,13140.5
9678.74,13890.5
Z" /> 
</g>
<g >
</g>
<g style="fill:#000000; fill-opacity:1.0; 
stroke:#000000; stroke-width:0; stroke-opacity:1; 
stroke-linecap:round; stroke-linejoin:round;">
<path style="fill:#000000; fill-opacity:1.0; 
stroke:#000000; stroke-width:0; stroke-opacity:1; 
stroke-linecap:round; stroke-linejoin:round;fill-rule:evenodd;"
d="M 7398.82,8965.48
7398.82,8729.26
8186.22,8729.26
8186.22,8965.48
Z" /> 
<path style="fill:#000000; fill-opacity:1.0; 
stroke:#000000; stroke-width:0; stroke-opacity:1; 
stroke-linecap:round; stroke-linejoin:round;fill-rule:evenodd;"
d="M 7398.82,9465.48
7398.82,9229.26
8186.22,9229.26
8186.22,9465.48
Z" /> 
<path style="fill:#000000; fill-opacity:1.0; 
stroke:#000000; stroke-width:0; stroke-opacity:1; 
stroke-linecap:round; stroke-linejoin:round;fill-rule:evenodd;"
d="M 7398.82,9965.48
7398.82,9729.26
8186.22,9729.26
8186.22,9965.48
Z" /> 
<path style="fill:#000000; fill-opacity:1.0; 
stroke:#000000; stroke-width:0; stroke-opacity:1; 
stroke-linecap:round; stroke-linejoin:round;fill-rule:evenodd;"
d="M 7398.82,10465.5
7398.82,10229.3
8186.22,10229.3
8186.22,10465.5
Z" /> 
<path style="fill:#000000; fill-opacity:1.0; 
stroke:#000000; stroke-width:0; stroke-opacity:1; 
stroke-linecap:round; stroke-linejoin:round;fill-rule:evenodd;"
d="M 9347.64,10465.5
9347.64,10229.3
10135,10229.3
10135,10465.5
Z" /> 
<path style="fill:#000000; fill-opacity:1.0; 
stroke:#000000; stroke-width:0; stroke-opacity:1; 
stroke-linecap:round; stroke-linejoin:round;fill-rule:evenodd;"
d="M 9347.64,9965.48
9347.64,9729.26
10135,9729.26
10135,9965.48
Z" /> 
<path style="fill:#000000; fill-opacity:1.0; 
stroke:#000000; stroke-width:0; stroke-opacity:1; 
stroke-linecap:round; stroke-linejoin:round;fill-rule:evenodd;"
d="M 9347.64,9465.48
9347.64,9229.26
10135,9229.26
10135,9465.48
Z" /> 
<path style="fill:#000000; fill-opacity:1.0; 
stroke:#000000; stroke-width:0; stroke-opacity:1; 
stroke-linecap:round; stroke-linejoin:round;fill-rule:evenodd;"
d="M 9347.64,8965.48
9347.64,8729.26
10135,8729.26
10135,8965.48
Z" /> 
</g>
<g >
</g>
<g >
</g>
<g style="fill:#000000; fill-opacity:1.0; 
stroke:#000000; stroke-width:0; stroke-opacity:1; 
stroke-linecap:round; stroke-linejoin:round;">
</g>
<g style="fill:#000000; fill-opacity:1.0; 
stroke:#000000; stroke-width:157.48; stroke-opacity:1; 
stroke-linecap:round; stroke-linejoin:round;">
</g>
<g style="fill:#000000; fill-opacity:0.0; 
stroke:#000000; stroke-width:157.48; stroke-opacity:1; 
stroke-linecap:round; stroke-linejoin:round;">
<path d="M7792 10347
L6246 10347
" />
<path d="M6246 10347
L1578 15015
" />
<path d="M6928 13515
L6928 11029
" />
<path d="M6928 11029
L6246 10347
" />
<path d="M6078 7015
L6078 6415
" />
<path d="M6578 7515
L6078 7015
" />
<path d="M8578 7515
L6578 7515
" />
<path d="M8578 10015
L8578 7515
" />
<path d="M8246 10347
L8578 10015
" />
<path d="M6078 6415
L6178 6315
" />
<path d="M7792 10347
L8246 10347
" />
<path d="M7792 8847
L6410 8847
" />
<path d="M6410 8847
L1578 4015
" />
<path d="M7792 9347
L2746 9347
" />
<path d="M2746 9347
L414 7015
" />
<path d="M7792 9847
L2746 9847
" />
<path d="M2746 9847
L78 12515
" />
<path d="M11410 10347
L15578 14515
" />
<path d="M11246 10347
L11246 13347
" />
<path d="M9741 10347
L11246 10347
" />
<path d="M11246 10347
L11410 10347
" />
<path d="M11078 13515
L10728 13515
" />
<path d="M11246 13347
L11078 13515
" />
<path d="M9741 9847
L11910 9847
" />
<path d="M11910 9847
L15410 9847
" />
<path d="M15410 9847
L17078 11515
" />
<path d="M9741 9347
L14910 9347
" />
<path d="M14910 9347
L15246 9347
" />
<path d="M15246 9347
L17078 7515
" />
<path d="M9741 9347
L9410 9347
" />
<path d="M9078 6015
L8278 6015
" />
<path d="M8278 6015
L7978 6315
" />
<path d="M9078 9235
L9078 6015
" />
<path d="M9190 9347
L9078 9235
" />
<path d="M9741 9347
L9190 9347
" />
<path d="M9741 8847
L11246 8847
" />
<path d="M11246 5833
L11078 5665
" />
<path d="M11246 8847
L11246 5833
" />
<path d="M11246 8847
L15578 4515
" />
<path d="M11078 4365
L11078 3515
" />
<path d="M8178 3515
L7978 3715
" />
<path d="M11078 3515
L8178 3515
" />
<path d="M9428 13515
L8228 13515
" />
</g>
<g >
</g>
</g>
<g style="fill:#FFFFFF; fill-opacity:0.0; 
stroke:#FFFFFF; stroke-width:157.48; stroke-opacity:1; 
stroke-linecap:round; stroke-linejoin:round;">
</g>
<g style="fill:#000000; fill-opacity:0.0; 
stroke:#000000; stroke-width:157.48; stroke-opacity:1; 
stroke-linecap:round; stroke-linejoin:round;">
</g>
<g style="fill:#000000; fill-opacity:0.0; 
stroke:#000000; stroke-width:59.0551; stroke-opacity:1; 
stroke-linecap:round; stroke-linejoin:round;">
<circle cx="8578.74" cy="9515.48" r="8514.69" /> 
<g >
</g>
<g >
</g>
<g >
</g>
<g >
</g>
<g >
</g>
<g >
</g>
</g> 
</svg>
