0
SECTION
2
HEADER
9
$INSUNITS
70
4
9
$ACADVER
1
AC1014
9
$HANDSEED
5
FFFF
0
ENDSEC
0
SECTION
2
TABLES
0
TABLE
2
VPORT
5
8
100
AcDbSymbolTable
0
ENDTAB
0
TABLE
2
LTYPE
5
5
100
AcDbSymbolTable
0
LTYPE
5
14
100
AcDbSymbolTableRecord
100
AcDbLinetypeTableRecord
2
BYBLOCK
70
0
0
LTYPE
5
15
100
AcDbSymbolTableRecord
100
AcDbLinetypeTableRecord
2
BYLAYER
70
0
0
ENDTAB
0
TABLE
2
LAYER
5
2
100
AcDbSymbolTable
70
2
0
LAYER
5
50
100
AcDbSymbolTableRecord
100
AcDbLayerTableRecord
2
0
70
0
6
CONTINUOUS
0
ENDTAB
0
TABLE
2
STYLE
5
3
100
AcDbSymbolTable
70
1
0
STYLE
5
11
100
AcDbSymbolTableRecord
100
AcDbTextStyleTableRecord
2
STANDARD
70
0
0
ENDTAB
0
TABLE
2
VIEW
5
6
100
AcDbSymbolTable
70
0
0
ENDTAB
0
TABLE
2
UCS
5
7
100
AcDbSymbolTable
70
0
0
ENDTAB
0
TABLE
2
APPID
5
9
100
AcDbSymbolTable
70
2
0
APPID
5
12
100
AcDbSymbolTableRecord
100
AcDbRegAppTableRecord
2
ACAD
70
0
0
ENDTAB
0
TABLE
2
DIMSTYLE
5
A
100
AcDbSymbolTable
70
1
0
ENDTAB
0
TABLE
2
BLOCK_RECORD
5
1
100
AcDbSymbolTable
70
1
0
BLOCK_RECORD
5
1F
100
AcDbSymbolTableRecord
100
AcDbBlockTableRecord
2
*MODEL_SPACE
0
BLOCK_RECORD
5
1B
100
AcDbSymbolTableRecord
100
AcDbBlockTableRecord
2
*PAPER_SPACE
0
ENDTAB
0
ENDSEC
0
SECTION
2
BLOCKS
0
BLOCK
5
20
100
AcDbEntity
100
AcDbBlockBegin
2
*MODEL_SPACE
0
ENDBLK
5
21
100
AcDbEntity
100
AcDbBlockEnd
0
BLOCK
5
1C
100
AcDbEntity
100
AcDbBlockBegin
2
*PAPER_SPACE
0
ENDBLK
5
1D
100
AcDbEntity
100
AcDbBlockEnd
0
ENDSEC
0
SECTION
2
ENTITIES
0
LWPOLYLINE
5
100
100
AcDbEntity
8
0
100
AcDbPolyline
90
8
70
1
43
0.0
10
60
20
15
10
30
20
15
10
30
20
1.8909090909091086
10
37
20
1.8909090909090938
10
37
20
-1.8090909090909064
10
30
20
-1.8090909090908913
10
30
20
-15
10
60
20
-15
0
LWPOLYLINE
5
101
100
AcDbEntity
8
0
100
AcDbPolyline
90
12
70
1
43
0.0
10
40.000000135892606
20
-20.361651885948344
10
9.9999999870022709
20
-20.361651885948355
10
9.9999999870022727
20
-22.511651885947856
10
13.999999987002273
20
-22.511651885948357
10
13.999999987002274
20
-26.211651885948356
10
9.9999999870022709
20
-26.211651885948058
10
9.9999999870022691
20
-28.361651885948355
10
39.999999991521648
20
-28.361651885948337
10
40.000000311332428
20
-26.211651885948353
10
33.000000311332428
20
-26.211651885948353
10
33.000000311332848
20
-22.511651885948364
10
40.000000402871756
20
-22.511651885948361
0
LINE
5
102
100
AcDbEntity
8
0
100
AcDbLine
10
9.9999999870022709
20
-23.325257027091943
30
0
11
39.999999987002269
21
-23.325257027091943
31
0
0
LINE
5
103
100
AcDbEntity
8
0
100
AcDbLine
10
10.934523762075571
20
2.2999999999999985
30
0
11
14.934523762075571
21
2.299999999999998
31
0
0
LINE
5
104
100
AcDbEntity
8
0
100
AcDbLine
10
10.934523762075576
20
-1.4000000000000021
30
0
11
14.934523762075575
21
-1.4000000000000024
31
0
0
LINE
5
105
100
AcDbEntity
8
0
100
AcDbLine
10
14.934523762075573
20
1.3999999999999981
30
0
11
14.934523762075575
21
-1.4000000000000024
31
0
0
LINE
5
106
100
AcDbEntity
8
0
100
AcDbLine
10
30.000000447034836
20
0.040909090909078447
30
0
11
37
21
0.040909090909093775
31
0
0
LINE
5
107
100
AcDbEntity
8
0
100
AcDbLine
10
25.000000061447444
20
-20.361651885948355
30
0
11
24.999999989261966
21
-28.361651885948341
31
0
0
LINE
5
108
100
AcDbEntity
8
0
100
AcDbLine
10
10.934523762075571
20
2.2999999999999985
30
0
11
10.934523762075576
21
-1.4000000000000021
31
0
0
LINE
5
109
100
AcDbEntity
8
0
100
AcDbLine
10
78.114499239018784
20
-14.399015654169355
30
0
11
112.9221203743503
21
-14.399015654169355
31
0
0
LINE
5
110
100
AcDbEntity
8
0
100
AcDbLine
10
97.922120374350413
20
15.600984345830645
30
0
11
78.114499239018784
21
-14.399015654169355
31
0
0
LINE
5
111
100
AcDbEntity
8
0
100
AcDbLine
10
127.96390563489332
20
-14.38000455963185
30
0
11
147.45885093356625
21
-14.283982676441436
31
0
0
LINE
5
112
100
AcDbEntity
8
0
100
AcDbLine
10
147.45885093356625
20
-14.283982676441436
30
0
11
153.391798097551
21
4.2864844784167992
31
0
0
LINE
5
113
100
AcDbEntity
8
0
100
AcDbLine
10
153.391798097551
20
4.2864844784167992
30
0
11
137.56361579967796
21
15.667642483892315
31
0
0
LINE
5
114
100
AcDbEntity
8
0
100
AcDbLine
10
137.56361579967796
20
15.667642483892315
30
0
11
121.84831399547816
21
4.1311178077509227
31
0
0
LINE
5
115
100
AcDbEntity
8
0
100
AcDbLine
10
105.77242734445143
20
-0.0996295943715306
30
0
11
126.23635954288017
21
-0.099629594371522495
31
0
0
LINE
5
116
100
AcDbEntity
8
0
100
AcDbLine
10
126.23635954288017
20
-5.7996295943715346
30
0
11
105.7724273444515
21
-5.7996295943715372
31
0
0
LINE
5
117
100
AcDbEntity
8
0
100
AcDbLine
10
105.77242734445143
20
-0.0996295943715306
30
0
11
100.83608254288016
21
-2.9496295943715301
31
0
0
LINE
5
118
100
AcDbEntity
8
0
100
AcDbLine
10
105.7724273444515
20
-5.7996295943715372
30
0
11
100.83608254288016
21
-2.9496295943715301
31
0
0
ARC
5
119
100
AcDbEntity
8
0
100
AcDbCircle
10
-125.96006845334637
20
-2.9496295943715345
30
0
40
2.8499999999999965
210
0
220
0
230
-1
100
AcDbArc
50
90
51
270
0
LWPOLYLINE
5
120
100
AcDbEntity
8
0
100
AcDbPolyline
90
21
70
1
43
0.0
10
68.322092034417324
20
-38.573153030342247
10
68.322092034417324
20
-36.229969595942435
42
0.99999999999999989
10
65.322092034417324
20
-36.22996959594245
10
65.322092034417366
20
-38.729933321711684
10
61.622092034417371
20
-38.729933321711755
10
61.622092034417371
20
-36.229922857857574
42
0.99999999999999989
10
58.622092034417371
20
-36.229922857844954
10
58.622092034417371
20
-39.000000581138593
42
0.24040988024022392
10
59.448548569936115
20
-40.619505362537318
10
64.520667502315888
20
-44.294920274881761
42
-0.24040988024022059
10
65.347124037834632
20
-45.914425056280493
10
65.347124037834618
20
-45.996105314659303
10
65.347124037817451
20
-48.759348438724601
42
0.99999999999999989
10
68.347124037817451
20
-48.759348438722171
10
68.347124037817153
20
-46.25930269999553
10
72.54712403781744
20
-46.259302699995501
10
72.54712403781744
20
-48.759290663576749
42
0.99999999999999989
10
75.54712403781744
20
-48.759290663547461
10
75.546968668280357
20
-45.466476417260907
42
0.24878377062242091
10
74.648180599146372
20
-43.821772368384792
10
69.221035473088378
20
-40.242786058511761
42
-0.25209542413766334
0
LINE
5
121
100
AcDbEntity
8
0
100
AcDbLine
10
64.000000953674316
20
-33.60000052154053
30
-2.4651903288156619e-31
11
64.000000953674117
21
-36.400000521540754
31
0
0
LINE
5
122
100
AcDbEntity
8
0
100
AcDbLine
10
66.822092034417309
20
-34.72996959594245
30
0
11
60.122092034427723
21
-34.729922857866001
31
0
0
LINE
5
123
100
AcDbEntity
8
0
100
AcDbLine
10
66.847124037814439
20
-50.259348438727599
30
0
11
74.047124037911644
21
-50.259290663670335
31
0
0
LINE
5
124
100
AcDbEntity
8
0
100
AcDbLine
10
70.122134660718402
20
-51.400000521540754
30
-2.4651903288156619e-31
11
70.122134660718601
21
-48.60000052154053
31
0
0
LINE
5
125
100
AcDbEntity
8
0
100
AcDbLine
10
112.9221203743503
20
-14.399015654169355
30
0
11
108.6224273444514
21
-5.7996295943715364
31
0
0
LINE
5
126
100
AcDbEntity
8
0
100
AcDbLine
10
105.77242734445143
20
-0.0996295943715306
30
0
11
97.922120374350413
21
15.600984345830645
31
0
0
LINE
5
127
100
AcDbEntity
8
0
100
AcDbLine
10
121.84831399547816
20
4.1311178077509227
30
0
11
123.24604250309626
21
-0.099629594371531932
31
0
0
LINE
5
128
100
AcDbEntity
8
0
100
AcDbLine
10
125.12917371755407
20
-5.7996295943715346
30
0
11
127.96390563489332
21
-14.38000455963185
31
0
0
LWPOLYLINE
5
129
100
AcDbEntity
8
0
100
AcDbPolyline
90
8
70
1
43
0.0
10
30
20
-1.8050000000000455
10
30
20
-15
10
60
20
-15
10
60
20
15
10
30
20
15
10
30
20
1.8949999999999552
10
37
20
1.8950000000000191
10
37
20
-1.8049999999999808
0
LINE
5
130
100
AcDbEntity
8
0
100
AcDbLine
10
10.000000779731831
20
-20.396308985223573
30
0
11
40.000000583805466
21
-20.396308985223634
31
0
0
LINE
5
131
100
AcDbEntity
8
0
100
AcDbLine
10
14.000000994055739
20
-22.546308985223629
30
-4.8985871965894158e-16
11
10.000000994055739
21
-22.546308985223614
31
-2.4651903288156619e-31
0
LINE
5
132
100
AcDbEntity
8
0
100
AcDbLine
10
40.000001310237053
20
-26.246308985223589
30
-5.4745978495577061e-23
11
40.00000157721626
21
-28.396308985223566
31
0
0
LINE
5
133
100
AcDbEntity
8
0
100
AcDbLine
10
14.000000994055739
20
-26.246308985223603
30
-4.8985871965894168e-16
11
10.00000136289227
21
-26.246308985223557
31
0
0
LINE
5
134
100
AcDbEntity
8
0
100
AcDbLine
10
25.000000681768636
20
-20.396308985223577
30
0
11
25.000000715397135
21
-28.325257027091943
31
0
0
LINE
5
135
100
AcDbEntity
8
0
100
AcDbLine
10
33.00000131023706
20
-22.546308985223629
30
8.5725270465716932e-16
11
33.00000131023706
21
-26.246308985223585
31
8.5725270465716932e-16
0
LINE
5
136
100
AcDbEntity
8
0
100
AcDbLine
10
10.00000136289227
20
-26.246308985223557
30
0
11
10.000001577216274
21
-28.396309847690169
31
0
0
LINE
5
137
100
AcDbEntity
8
0
100
AcDbLine
10
33.00000131023706
20
-26.246308985223585
30
8.5725270465716932e-16
11
40.000001310237053
21
-26.246308985223589
31
-5.4745978495577061e-23
0
LINE
5
138
100
AcDbEntity
8
0
100
AcDbLine
10
40.000000583805466
20
-20.396308985223634
30
0
11
40.000000850784588
21
-22.546308985223618
31
-5.4745978495577061e-23
0
LINE
5
139
100
AcDbEntity
8
0
100
AcDbLine
10
9.9999999870022709
20
-23.325257027091943
30
0
11
39.999999987002269
21
-23.325257027091943
31
0
0
LINE
5
140
100
AcDbEntity
8
0
100
AcDbLine
10
30.000000447034836
20
0.045000000000030051
30
0
11
37
21
0.045000000000019122
31
0
0
LINE
5
141
100
AcDbEntity
8
0
100
AcDbLine
10
40.000000850784588
20
-22.546308985223618
30
-5.4745978495577061e-23
11
33.00000131023706
21
-22.546308985223629
31
8.5725270465716932e-16
0
LINE
5
142
100
AcDbEntity
8
0
100
AcDbLine
10
10.000000779731831
20
-20.396308985223573
30
0
11
10.000000994055739
21
-22.546308985223614
31
-2.4651903288156619e-31
0
ARC
5
143
100
AcDbEntity
8
0
100
AcDbCircle
10
0.11190590961779101
20
0
30
0
40
15.000000000000002
210
0
220
-0
230
1
100
AcDbArc
50
8.8201478292334947
51
354.64459938694733
0
LINE
5
144
100
AcDbEntity
8
0
100
AcDbLine
10
14.000000994055739
20
-22.546308985223629
30
-4.8985871965894158e-16
11
14.000000994055739
21
-26.246308985223603
31
-4.8985871965894168e-16
0
LINE
5
145
100
AcDbEntity
8
0
100
AcDbLine
10
100.83608254288016
20
-2.9496295943715301
30
0
11
105.77242734445143
21
-0.0996295943715306
31
0
0
LINE
5
146
100
AcDbEntity
8
0
100
AcDbLine
10
97.922120374350413
20
15.600984345830645
30
0
11
78.114499239018784
21
-14.399015654169355
31
0
0
LINE
5
147
100
AcDbEntity
8
0
100
AcDbLine
10
112.9221203743503
20
-14.399015654169355
30
0
11
108.6224273444514
21
-5.7996295943715364
31
0
0
LINE
5
148
100
AcDbEntity
8
0
100
AcDbLine
10
105.7724273444515
20
-5.7996295943715372
30
0
11
100.83608254288016
21
-2.9496295943715301
31
0
0
LINE
5
149
100
AcDbEntity
8
0
100
AcDbLine
10
-285
20
0
30
0
11
-269.00000087916851
21
0
31
0
0
LINE
5
150
100
AcDbEntity
8
0
100
AcDbLine
10
-270
20
0
30
0
11
-270
21
1.8500000000000001
31
0
0
LINE
5
151
100
AcDbEntity
8
0
100
AcDbLine
10
-270
20
1.8500000000000001
30
0
11
-273.09999858960509
21
1.850000000000001
31
0
0
LINE
5
152
100
AcDbEntity
8
0
100
AcDbLine
10
-270.11452049814989
20
1.8500000000000001
30
0
11
-274.11452049814989
21
1.8500000000000005
31
0
0
LINE
5
153
100
AcDbEntity
8
0
100
AcDbLine
10
-274.11452049814989
20
1.8500000000000005
30
0
11
-274.11452049814989
21
-1.8500000000000003
31
0
0
LINE
5
154
100
AcDbEntity
8
0
100
AcDbLine
10
-274.11452049814989
20
-1.8500000000000003
30
0
11
-270.11452049814989
21
-1.8500000000000003
31
0
0
ARC
5
155
100
AcDbEntity
8
0
100
AcDbCircle
10
-285
20
0
30
0
40
15.000000000000004
210
0
220
-0
230
1
100
AcDbArc
50
7.0845180563092578
51
352.91548194369074
0
LINE
5
156
100
AcDbEntity
8
0
100
AcDbLine
10
-251.00000394880772
20
15.000000223517418
30
0
11
-221.00000394880772
21
15.000000223517418
31
0
0
LINE
5
157
100
AcDbEntity
8
0
100
AcDbLine
10
-221.00000394880772
20
15.000000223517418
30
0
11
-221.00000394880772
21
-15.000000223517418
31
0
0
LINE
5
158
100
AcDbEntity
8
0
100
AcDbLine
10
-221.00000394880772
20
-15.000000223517418
30
0
11
-251.00000394880772
21
-15.000000223517418
31
0
0
LINE
5
159
100
AcDbEntity
8
0
100
AcDbLine
10
-251.00000394880772
20
0
30
0
11
-221.00000394880772
21
0
31
0
0
LINE
5
160
100
AcDbEntity
8
0
100
AcDbLine
10
-251.00000394880772
20
1.8500000000000001
30
0
11
-244.00000394880774
21
1.8500000000000005
31
0
0
LINE
5
161
100
AcDbEntity
8
0
100
AcDbLine
10
-244.00000394880774
20
1.8500000000000005
30
0
11
-244.00000394880774
21
-1.8500000000000001
31
0
0
LINE
5
162
100
AcDbEntity
8
0
100
AcDbLine
10
-244.00000394880774
20
-1.8500000000000001
30
0
11
-251.00000394880772
21
-1.8500000000000001
31
0
0
LINE
5
163
100
AcDbEntity
8
0
100
AcDbLine
10
-251.00000394880772
20
-15.000000223517418
30
0
11
-251.00000394880772
21
-1.8500000000000001
31
0
0
LINE
5
164
100
AcDbEntity
8
0
100
AcDbLine
10
-251.00000394880772
20
1.8500000000000001
30
0
11
-251.00000394880772
21
15.000000223517418
31
0
0
LINE
5
165
100
AcDbEntity
8
0
100
AcDbLine
10
-285.00000424683094
20
-30.000000447034836
30
0
11
-255.00000424683094
21
-30.000000447034836
31
0
0
LINE
5
166
100
AcDbEntity
8
0
100
AcDbLine
10
-255.00000424683094
20
-38.000000447034836
30
0
11
-285.00000424683094
21
-38.000000447034836
31
0
0
LINE
5
167
100
AcDbEntity
8
0
100
AcDbLine
10
-285.00000424683094
20
-34.000000447034836
30
0
11
-255.00000424683094
21
-34.000000447034836
31
0
0
LINE
5
168
100
AcDbEntity
8
0
100
AcDbLine
10
-285.00000424683094
20
-32.150000447034834
30
0
11
-281.00000424683094
21
-32.150000447034834
31
0
0
LINE
5
169
100
AcDbEntity
8
0
100
AcDbLine
10
-281.00000424683094
20
-32.150000447034834
30
0
11
-281.00000424683094
21
-35.850000447034837
31
0
0
LINE
5
170
100
AcDbEntity
8
0
100
AcDbLine
10
-281.00000424683094
20
-35.850000447034837
30
0
11
-285.00000424683094
21
-35.850000447034837
31
0
0
LINE
5
171
100
AcDbEntity
8
0
100
AcDbLine
10
-285.00000424683094
20
-38.000000447034836
30
0
11
-285.00000424683094
21
-35.850000447034837
31
0
0
LINE
5
172
100
AcDbEntity
8
0
100
AcDbLine
10
-285.00000424683094
20
-32.150000447034834
30
0
11
-285.00000424683094
21
-30.000000447034836
31
0
0
LINE
5
173
100
AcDbEntity
8
0
100
AcDbLine
10
-255.00000424683094
20
-32.150000447034834
30
0
11
-262.00000424683094
21
-32.150000447034834
31
0
0
LINE
5
174
100
AcDbEntity
8
0
100
AcDbLine
10
-262.00000424683094
20
-32.150000447034834
30
0
11
-262.00000424683094
21
-35.850000447034837
31
0
0
LINE
5
175
100
AcDbEntity
8
0
100
AcDbLine
10
-262.00000424683094
20
-35.850000447034837
30
0
11
-255.00000424683094
21
-35.850000447034837
31
0
0
LINE
5
176
100
AcDbEntity
8
0
100
AcDbLine
10
-255.00000424683094
20
-30.000000447034836
30
0
11
-255.00000424683094
21
-32.150000447034834
31
0
0
LINE
5
177
100
AcDbEntity
8
0
100
AcDbLine
10
-255.00000424683094
20
-35.850000447034837
30
0
11
-255.00000424683094
21
-38.000000447034836
31
0
0
LINE
5
178
100
AcDbEntity
8
0
100
AcDbLine
10
-204.92200954412382
20
-8.3493649053890131
30
0
11
-170.28099339274621
21
-8.349364905389038
31
0
0
LINE
5
179
100
AcDbEntity
8
0
100
AcDbLine
10
-187.601501468435
20
21.650635094610955
30
0
11
-204.92200954412382
21
-8.3493649053890131
31
0
0
LINE
5
180
100
AcDbEntity
8
0
100
AcDbLine
10
-187.601501468435
20
21.650635094610955
30
0
11
-187.60150146843503
21
-8.349364905389038
31
0
0
LINE
5
181
100
AcDbEntity
8
0
100
AcDbLine
10
-154.96595051866197
20
-8.3493649053890362
30
0
11
-135.4707687446876
21
-8.3493649053890362
31
0
0
LINE
5
182
100
AcDbEntity
8
0
100
AcDbLine
10
-135.4707687446876
20
-8.3493649053890362
30
0
11
-129.44642626810079
21
10.19165475710782
31
0
0
LINE
5
183
100
AcDbEntity
8
0
100
AcDbLine
10
-129.44642626810079
20
10.19165475710782
30
0
11
-145.21835963167479
21
21.650635094610962
31
0
0
LINE
5
184
100
AcDbEntity
8
0
100
AcDbLine
10
-145.21835963167479
20
21.650635094610962
30
0
11
-160.99029299524881
21
10.191654757107802
31
0
0
LINE
5
185
100
AcDbEntity
8
0
100
AcDbLine
10
-145.21835963167479
20
21.650635094610962
30
0
11
-145.21835963167479
21
-8.3493649053890362
31
0
0
LINE
5
186
100
AcDbEntity
8
0
100
AcDbLine
10
-187.60150146843506
20
6.6506350946109549
30
0
11
-145.21835963167479
21
6.6506350946109638
31
0
0
LWPOLYLINE
5
187
100
AcDbEntity
8
0
100
AcDbPolyline
90
9
70
1
43
0.0
10
-156.76206242498034
20
3.6506350946109567
10
-179.51859769978014
20
3.6506350946109527
10
-181.82799877653866
20
3.6506350946109434
10
-186.85832429743371
20
12.36341447541152
10
-185.12627348986484
20
13.363414475411552
10
-182.98269931491797
20
9.6506350946109549
10
-156.60865615390125
20
9.650635094610962
10
-154.00987793642688
20
1.6524181579205228
10
-155.91199096901721
20
1.0343841691706217
0
LINE
5
188
100
AcDbEntity
8
0
100
AcDbLine
10
-183.56004958410765
20
6.6506350946109656
30
0
11
-180.09594796896988
21
8.6506350946109887
31
0
0
LINE
5
189
100
AcDbEntity
8
0
100
AcDbLine
10
-178.94124743059058
20
6.6506350946109567
30
0
11
-159.94124743059058
21
6.6506350946109567
31
0
0
LINE
5
190
100
AcDbEntity
8
0
100
AcDbLine
10
-160.99029299524881
20
10.191654757107802
30
0
11
-160.81450505085428
21
9.6506350946109603
31
0
0
LINE
5
191
100
AcDbEntity
8
0
100
AcDbLine
10
-158.86498687345687
20
3.6506350946109563
30
0
11
-154.96595051866197
21
-8.3493649053890362
31
0
0
LINE
5
192
100
AcDbEntity
8
0
100
AcDbLine
10
-170.28099339274621
20
-8.349364905389038
30
0
11
-177.20919662302174
21
3.6506350946109531
31
0
0
LINE
5
193
100
AcDbEntity
8
0
100
AcDbLine
10
-180.6732982381595
20
9.6506350946109567
30
0
11
-187.601501468435
21
21.650635094610955
31
0
0
ENDSEC
0
SECTION
2
OBJECTS
0
DICTIONARY
5
C
100
AcDbDictionary
3
ACAD_GROUP
350
D
3
ACAD_MLINESTYLE
350
17
0
DICTIONARY
5
D
100
AcDbDictionary
0
DICTIONARY
5
1A
330
C
100
AcDbDictionary
0
DICTIONARY
5
17
100
AcDbDictionary
0
ENDSEC
0
EOF
